<?xml version="1.0" encoding="utf-8"?>
<!-- Generator: Adobe Illustrator 23.1.1, SVG Export Plug-In . SVG Version: 6.00 Build 0)  -->
<svg version="1.1" id="Calque_1" xmlns="http://www.w3.org/2000/svg" xmlns:xlink="http://www.w3.org/1999/xlink" x="0px" y="0px"
	 viewBox="0 0 14.4 14.4" style="enable-background:new 0 0 14.4 14.4;" xml:space="preserve">
<style type="text/css">
	.st0{fill:#FFFFFF;}
</style>
<g id="Layer_255" transform="translate(-111.837 -112.05)">
	<g id="Groupe_63" transform="translate(111.837 112.05)">
		<g id="Groupe_62" transform="translate(0 0)">
			<path id="Tracé_83" class="st0" d="M11.6,0H2.8C1.2,0,0,1.2,0,2.8v8.9c0,1.5,1.2,2.8,2.8,2.8h8.9c1.5,0,2.8-1.2,2.8-2.8V2.8
				C14.4,1.2,13.2,0,11.6,0z M12.4,1.7h0.3v2.4l-2.4,0l0-2.4L12.4,1.7z M5.2,5.7C6,4.6,7.6,4.3,8.7,5.2s1.4,2.4,0.6,3.5
				s-2.4,1.4-3.5,0.6C5.1,8.8,4.7,8,4.7,7.2C4.7,6.7,4.9,6.2,5.2,5.7z M13,11.6c0,0.8-0.6,1.4-1.4,1.4H2.8c-0.8,0-1.4-0.6-1.4-1.4
				V5.7h2.2c-0.8,2,0.1,4.3,2.2,5.1c2,0.8,4.3-0.1,5.1-2.2c0.4-1,0.4-2,0-3H13L13,11.6L13,11.6z"/>
		</g>
	</g>
</g>
</svg>
